<?xml version="1.0" encoding="UTF-8" standalone="no"?>
<!-- Generated by SVGo -->

<svg
   xmlns:dc="http://purl.org/dc/elements/1.1/"
   xmlns:cc="http://creativecommons.org/ns#"
   xmlns:rdf="http://www.w3.org/1999/02/22-rdf-syntax-ns#"
   xmlns:svg="http://www.w3.org/2000/svg"
   xmlns="http://www.w3.org/2000/svg"
   xmlns:sodipodi="http://sodipodi.sourceforge.net/DTD/sodipodi-0.dtd"
   xmlns:inkscape="http://www.inkscape.org/namespaces/inkscape"
   width="136.452mm"
   height="98.352mm"
   viewBox="0.000 0.000 136.452 98.352"
   version="1.1"
   id="svg20"
   sodipodi:docname="levinson-bottom-mini.svg"
   inkscape:version="0.92.2 (5c3e80d, 2017-08-06)">
  <metadata
     id="metadata26">
    <rdf:RDF>
      <cc:Work
         rdf:about="">
        <dc:format>image/svg+xml</dc:format>
        <dc:type
           rdf:resource="http://purl.org/dc/dcmitype/StillImage" />
        <dc:title></dc:title>
      </cc:Work>
    </rdf:RDF>
  </metadata>
  <defs
     id="defs24" />
  <sodipodi:namedview
     pagecolor="#ffffff"
     bordercolor="#666666"
     borderopacity="1"
     objecttolerance="10"
     gridtolerance="10"
     guidetolerance="10"
     inkscape:pageopacity="0"
     inkscape:pageshadow="2"
     inkscape:window-width="1200"
     inkscape:window-height="1883"
     id="namedview22"
     showgrid="false"
     inkscape:lockguides="false"
     showguides="true"
     inkscape:document-units="mm"
     inkscape:zoom="2"
     inkscape:cx="212.13863"
     inkscape:cy="366.98559"
     inkscape:window-x="0"
     inkscape:window-y="0"
     inkscape:window-maximized="1"
     inkscape:current-layer="svg20"
     inkscape:measure-start="56.951,332.203"
     inkscape:measure-end="0,330">
    <inkscape:grid
       type="xygrid"
       id="grid30" />
  </sodipodi:namedview>
  <polygon
     points="7.3,93.269 7.073,93.205 6.852,93.123 6.639,93.025 6.433,92.909 6.237,92.779 6.052,92.633 5.879,92.473 5.719,92.3 5.573,92.115 5.443,91.919 5.327,91.713 5.229,91.5 5.147,91.279 5.083,91.052 5.037,90.821 5.01,90.587 5,90.351 5.001,8.001 5.01,7.765 5.037,7.531 5.083,7.3 5.147,7.073 5.229,6.852 5.327,6.639 5.443,6.433 5.573,6.237 5.719,6.052 5.879,5.879 6.052,5.719 6.237,5.573 6.433,5.443 6.639,5.327 6.852,5.229 7.073,5.147 7.3,5.083 7.531,5.037 7.765,5.01 8.001,5 128.45,5.001 128.687,5.01 128.92,5.037 129.152,5.083 129.378,5.147 129.599,5.229 129.813,5.327 130.019,5.443 130.215,5.573 130.4,5.719 130.573,5.879 130.733,6.052 130.878,6.237 131.009,6.433 131.125,6.639 131.223,6.852 131.305,7.073 131.369,7.3 131.415,7.531 131.442,7.765 131.452,8.001 131.451,90.352 131.442,90.587 131.415,90.821 131.369,91.052 131.305,91.279 131.223,91.5 131.125,91.713 131.009,91.919 130.878,92.115 130.733,92.3 130.573,92.473 130.4,92.633 130.215,92.779 130.019,92.909 129.813,93.025 129.599,93.123 129.378,93.205 129.152,93.269 128.92,93.315 128.687,93.342 128.45,93.352 8.001,93.352 7.765,93.342 7.531,93.315 "
     style="fill:none;stroke:#ff0400;stroke-width:0.03783542;stroke-miterlimit:4;stroke-dasharray:none;stroke-opacity:1"
     id="polygon2"
     transform="matrix(0.8912664,0,0,0.92884454,-4.4375355,1.8797989)" />
  <polygon
     points="129.226,90.894 129.375,90.601 129.426,90.277 129.375,89.952 129.226,89.659 128.994,89.427 128.7,89.278 128.376,89.227 128.051,89.278 127.759,89.427 127.527,89.659 127.378,89.952 127.326,90.277 127.378,90.601 127.527,90.894 127.759,91.126 128.051,91.275 128.376,91.327 128.7,91.275 128.994,91.126 "
     style="fill:none;stroke:#0000ff;stroke-width:0.01mm"
     id="polygon4"
     transform="matrix(0.93527747,0,0,0.93542744,-23.36307,-12.095687)" />
  <polygon
     transform="matrix(0.93527747,0,0,0.93542744,-104.06724,-12.095687)"
     id="polygon4550"
     style="fill:none;stroke:#0000ff;stroke-width:0.01mm"
     points="128.376,89.227 128.051,89.278 127.759,89.427 127.527,89.659 127.378,89.952 127.326,90.277 127.378,90.601 127.527,90.894 127.759,91.126 128.051,91.275 128.376,91.327 128.7,91.275 128.994,91.126 129.226,90.894 129.375,90.601 129.426,90.277 129.375,89.952 129.226,89.659 128.994,89.427 128.7,89.278 " />
  <polygon
     points="127.378,89.952 127.326,90.277 127.378,90.601 127.527,90.894 127.759,91.126 128.051,91.275 128.376,91.327 128.7,91.275 128.994,91.126 129.226,90.894 129.375,90.601 129.426,90.277 129.375,89.952 129.226,89.659 128.994,89.427 128.7,89.278 128.376,89.227 128.051,89.278 127.759,89.427 127.527,89.659 "
     style="fill:none;stroke:#0000ff;stroke-width:0.01mm"
     id="polygon4552"
     transform="matrix(0.93527747,0,0,0.84843195,-23.36307,-55.016578)" />
  <polygon
     transform="matrix(0.93442625,0,0,0.93614778,-103.95705,-74.359298)"
     id="polygon4556"
     style="fill:none;stroke:#0000ff;stroke-width:0.01mm"
     points="127.378,89.952 127.326,90.277 127.378,90.601 127.527,90.894 127.759,91.126 128.051,91.275 128.376,91.327 128.7,91.275 128.994,91.126 129.226,90.894 129.375,90.601 129.426,90.277 129.375,89.952 129.226,89.659 128.994,89.427 128.7,89.278 128.376,89.227 128.051,89.278 127.759,89.427 127.527,89.659 " />
</svg>
